<svg width="754" height="476" viewBox="0 0 754 476" fill="none" xmlns="http://www.w3.org/2000/svg">
<path fill-rule="evenodd" clip-rule="evenodd" d="M64.1875 68.1875L628.191 68.1875V558H692.191V68.1875V4.18752L628.191 4.18751L64.1875 4.1875H0.187511L0.187509 68.1875L0.1875 558H64.1875L64.1875 68.1875Z" fill="#0A29CD"/>
<path fill-rule="evenodd" clip-rule="evenodd" d="M1256.13 556.953C1312.87 505.101 1348.46 430.493 1348.46 347.572C1348.46 190.96 1221.5 64 1064.89 64C908.276 64 781.316 190.96 781.316 347.572C781.316 430.493 816.907 505.101 873.646 556.953H787.436C743.421 498.72 717.316 426.195 717.316 347.572C717.316 155.613 872.93 0 1064.89 0C1256.85 0 1412.46 155.613 1412.46 347.572C1412.46 426.195 1386.36 498.72 1342.34 556.953H1256.13Z" fill="#0A29CD"/>
<path fill-rule="evenodd" clip-rule="evenodd" d="M510.031 558H600.541L70.5673 28.0264L25.3125 73.2812L510.031 558Z" fill="#0A29CD"/>
</svg>
